<?xml version="1.0" standalone="no"?>
<!DOCTYPE svg PUBLIC "-//W3C//DTD SVG 20010904//EN"
 "http://www.w3.org/TR/2001/REC-SVG-20010904/DTD/svg10.dtd">
<svg version="1.0" xmlns="http://www.w3.org/2000/svg"
 width="700.000000pt" height="700.000000pt" viewBox="0 0 700.000000 700.000000"
 preserveAspectRatio="xMidYMid meet">
<metadata>
Created by potrace 1.14, written by Peter Selinger 2001-2017
</metadata>
<g transform="translate(0.000000,700.000000) scale(0.100000,-0.100000)"
fill="#000000" stroke="none">
<path d="M1065 6123 c-87 -17 -156 -75 -178 -148 -10 -34 -12 -554 -12 -2457
l1 -2413 26 -55 c41 -88 110 -146 198 -165 57 -13 270 -14 278 -1 4 6 7 452 8
991 1 539 4 1005 8 1035 53 389 328 799 796 1185 323 267 707 513 1128 725 90
45 171 82 180 82 32 2 356 -165 592 -305 119 -70 399 -251 440 -284 8 -6 56
-42 105 -79 132 -99 190 -147 289 -238 414 -376 622 -709 682 -1086 4 -25 8
-490 9 -1035 2 -545 3 -993 4 -996 0 -3 63 -5 140 -4 124 2 144 5 192 27 68
31 114 78 147 148 l26 55 1 2410 c1 1994 -1 2418 -12 2457 -36 126 -189 189
-307 127 -50 -26 -73 -51 -98 -108 -18 -38 -20 -66 -20 -246 l0 -203 -262 2
-261 1 -1 201 c-2 178 -4 206 -22 246 -36 82 -105 128 -195 130 -64 1 -115
-20 -160 -66 -56 -57 -63 -95 -62 -314 0 -164 -2 -193 -15 -196 -8 -3 -126 -5
-262 -4 l-248 0 -1 197 c-1 220 -2 232 -29 275 -29 48 -62 75 -116 95 -94 35
-191 3 -254 -84 l-35 -49 -2 -196 c-1 -107 -2 -205 -2 -216 -1 -21 -3 -21
-261 -21 -233 0 -260 1 -261 16 0 9 -1 104 -3 211 -2 179 -4 198 -24 237 -39
74 -131 124 -214 117 -81 -7 -167 -77 -187 -151 -6 -21 -11 -126 -11 -234 l0
-197 -262 2 -262 1 -2 205 c-1 228 -6 253 -66 310 -67 66 -166 82 -248 40 -49
-25 -71 -48 -101 -104 -20 -37 -22 -57 -23 -245 l-1 -206 -262 -1 -261 -2 0
202 c1 227 -7 262 -73 324 -44 42 -119 65 -174 55z"/>
<path d="M3335 4336 c-547 -300 -971 -624 -1233 -939 -131 -159 -210 -298
-254 -453 l-22 -79 -1 -995 0 -995 1675 0 1675 0 0 990 c0 1087 3 1035 -62
1190 -174 418 -718 890 -1525 1323 -43 23 -84 42 -90 41 -7 0 -80 -38 -163
-83z"/>
</g>
</svg>
